<svg xmlns="http://www.w3.org/2000/svg" width="101.83" height="53.871" viewBox="0 0 101.83 53.871">
  <g id="Group_3922" data-name="Group 3922" transform="translate(-95.541 -28.599)">
    <g id="Group_138" data-name="Group 138" transform="translate(95.541 28.599)">
      <path id="Path_95" data-name="Path 95" d="M137.738,314.35q3.946,0,5.373,1.614t.21,4.523a9.923,9.923,0,0,1-2.375,3.369h0a10.273,10.273,0,0,1-3.887,2.289,18.345,18.345,0,0,1-5.374.627h-8.081l3.012-7.165h2.676l-2.12,5.032,2.84.006a10.2,10.2,0,0,0,4.617-.725c1.3-.612,1.857-1.987,2.48-3.483,1.081-2.584.173-4.145-2.959-4.145h-6.14l.8-1.946Z" transform="translate(-123.605 -314.337)"/>
      <path id="Path_96" data-name="Path 96" d="M766.533,314.381l-.044.112h.071l-1.554,3.732H762.33l.811-1.942h-3.518a6.653,6.653,0,0,0-6.478,4.194c-.625,1.5-.713,2.909.084,3.519q1.086.836,4.375.836h4.536l-.8,1.978h-8.059a13.357,13.357,0,0,1-4.848-.627,3.241,3.241,0,0,1-1.974-2.287,5.608,5.608,0,0,1,.44-3.369A9.249,9.249,0,0,1,750.89,316a13.14,13.14,0,0,1,6.724-1.613h8.914Z" transform="translate(-664.731 -314.368)"/>
      <path id="Path_97" data-name="Path 97" d="M307.009,314.276H304.28v.011h-3.313l-12.724,11.906,4.975-11.9h-5.452l-6.589,5.16-3.393,2.784h-.155l1.6-4.058-1.945-3.89h-5.474l-4.975,11.926-2.866-11.926h-6.012L244.69,326.715H248l3.392-3.249h8.358l.666,3.249H269.3l3.208-7.68a14.035,14.035,0,0,0,.47-1.325,3.472,3.472,0,0,0,.323,1.275l2.815,6.408h.477l8.079-6.388a16.8,16.8,0,0,0,1.374-1.3c-.313.58-.531,1.018-.658,1.327l-3.209,7.678h12.04l3.352-3.265h8.678l.7,3.265H310Zm-53.875,7.484,5.287-5.058.954,5.058Zm46.176-.018,5.428-5.285,1.131,5.285Z" transform="translate(-228.817 -314.276)"/>
    </g>
    <path id="Union_6" data-name="Union 6" d="M26.3,32.652A21.086,21.086,0,0,1,20.5,28.3,20.981,20.981,0,0,1,17,23.09a.976.976,0,1,1,.041-.01,19.914,19.914,0,0,0,9.527,9.009,19.6,19.6,0,0,0,13.76.834,19.422,19.422,0,0,0,10.736-8.288A18.431,18.431,0,0,0,53.55,18.3a19.308,19.308,0,0,0,.333-3.381,5.158,5.158,0,0,0-.731-2.937l.016-.008-.157-.425c-5.574,6.489-7.97,5.016-8.105,4.263-.474-2.481,3.341-8.443,7.687-9.613a6.886,6.886,0,0,1,1.84-.25c1.785.028,3.009.5,3.009,1.283a1.058,1.058,0,0,1-.338.782.686.686,0,0,1-.613.028c-.39-.141-.307-.613-.781-.892a1.683,1.683,0,0,0-1.282-.028c-3.176.779-5.6,4.931-5.907,5.989-.333,1.164.448,1.7,4.1-2.314.193-.224.666-.863,1.081-1.339.641-.723,1.115-1.113,2.008-.723a1.559,1.559,0,0,1,.806,1.54,24.6,24.6,0,0,1-.116,4.7,22.391,22.391,0,0,1-.715,3.789,20.484,20.484,0,0,1-3.049,6.892,20.975,20.975,0,0,1-11.964,8.468,19.841,19.841,0,0,1-5.177.68A20.74,20.74,0,0,1,26.3,32.652ZM27.363,16.76c-.948-.529-1.31-1.812-1.031-3.29a9.421,9.421,0,0,1,1.059-2.618,49.681,49.681,0,0,1,2.731-4.18,1.149,1.149,0,0,1,1.059-.529,1.606,1.606,0,0,1,1.364.748,1.765,1.765,0,0,1-.416,1.734c-.865,1.254-4.235,6.3-4.152,7.941.014.208-.138.266-.3.266A.73.73,0,0,1,27.363,16.76Zm-16,0c-.93-.519-1.3-1.763-1.048-3.205a4.038,4.038,0,0,1-.742.416,31.035,31.035,0,0,1-6.829,2.342,2.91,2.91,0,0,1-1.924-.2,1.991,1.991,0,0,1-.806-1.283C-.212,13.191,3.02,8.649,4.135,7.116A58.389,58.389,0,0,1,9.764.513,2.6,2.6,0,0,1,12.1.124c.5.139,1.081.527.694.892a43.066,43.066,0,0,0-5.4,6.268c-.664.892-4.152,5.881-3.845,6.937.224.749,4.96-.805,5.683-1.057.549-.184,1.078-.343,1.209-.128a9.441,9.441,0,0,1,.946-2.185,49.693,49.693,0,0,1,2.73-4.18,1.158,1.158,0,0,1,1.061-.529,1.61,1.61,0,0,1,1.366.748,1.766,1.766,0,0,1-.419,1.734c-.864,1.254-4.236,6.3-4.153,7.941.015.208-.137.266-.294.266A.727.727,0,0,1,11.359,16.76Zm6.213-6.578c.53-1.643,1.311-4.012,3.092-4.012.644,0,1.561.474,1.229,1.227-.644,1.422-2.01,4.932-2.01,6.465,0,.582.333.39,1.477-.832a27.168,27.168,0,0,0,4.46-6.661c.332-.779,1.505-.332,1.449.5-.138,1.867-4.345,6.325-5.628,7.606-.749.749-2.368,2.147-3.762,2.147C15.735,16.619,17.156,11.462,17.573,10.182ZM40.63,16.369c-2.2-.781-1.253-3.929,1.031-7.328.7-1.031-.249-.641-.748-.332a16.229,16.229,0,0,0-3.483,2.813,32.852,32.852,0,0,0-3.593,4.6c-.28.417-1.032.334-1.618.056-.781-.39-.862-1.477.332-3.343.614-.948,1.422-2.231,2.228-3.514.893-1.392,1.34-2.06,1.952-2.869a1.039,1.039,0,0,1,1.031-.5,1.543,1.543,0,0,1,1,.417c.727.613.226,1.477-.219,2.2-.417.665-1,1.505-1.981,2.813,1.757-1.977,4.264-4.4,6.938-5.157a2.179,2.179,0,0,1,1.952.141,1.385,1.385,0,0,1,.1,1.956c-.026.027-.05.053-.077.078-.811,1.252-1.09,1.673-2.148,3.316-.836,1.31-1.977,3.288-1.952,4.43,0,.219-.172.285-.37.285A1.376,1.376,0,0,1,40.63,16.369ZM16.18,5.084a1.5,1.5,0,0,1,.389-2.007A1.387,1.387,0,1,1,18.1,5.388h0a1.4,1.4,0,0,1-1.924-.305Zm16,0a1.5,1.5,0,0,1,.391-2.007,1.383,1.383,0,1,1-.391,2.007Z" transform="translate(115.943 47.667)" fill="#bfa272"/>
  </g>
</svg>
