<svg id="apple-appstore" xmlns="http://www.w3.org/2000/svg" width="188.037" height="54.504" viewBox="0 0 188.037 54.504">
  <path id="Path_5585" data-name="Path 5585" d="M2.725,0H185.312a2.724,2.724,0,0,1,2.725,2.725V51.778a2.724,2.724,0,0,1-2.725,2.725H2.725A2.724,2.724,0,0,1,0,51.778V2.725A2.724,2.724,0,0,1,2.725,0Z"/>
  <g id="Group_5753" data-name="Group 5753" transform="translate(23.164 10.901)">
    <g id="Group_5752" data-name="Group 5752">
      <g id="Group_5751" data-name="Group 5751" transform="translate(41.744 4.546)">
        <path id="Path_5586" data-name="Path 5586" d="M3.511,24.081l.9-2.5H8.547l.9,2.5H12L7.648,12.635H5.309L.96,24.081Zm4.3-4.562H5.146l1.341-3.712Zm7.505,7.9V23.345a2.733,2.733,0,0,0,2.175.867c2.371,0,3.973-1.684,3.973-4.251s-1.472-4.251-3.777-4.251a2.877,2.877,0,0,0-2.371,1.03v-.9H13.043V27.416h2.273Zm1.9-5.167a2.044,2.044,0,0,1-2.028-2.289,2.037,2.037,0,1,1,4.039,0A2.05,2.05,0,0,1,17.213,22.249Zm7.9,5.167V23.345a2.733,2.733,0,0,0,2.175.867c2.371,0,3.973-1.684,3.973-4.251s-1.472-4.251-3.777-4.251a2.877,2.877,0,0,0-2.371,1.03v-.9H22.838V27.416h2.273Zm1.9-5.167A2.044,2.044,0,0,1,24.98,19.96a2.037,2.037,0,1,1,4.039,0A2.05,2.05,0,0,1,27.007,22.249Zm12.934,1.962c2.567,0,4.3-1.341,4.3-3.483,0-4.529-6.017-2.6-6.017-4.987,0-.67.6-1.128,1.57-1.128A1.665,1.665,0,0,1,41.658,16.1H44c-.065-2.175-1.733-3.6-4.2-3.6-2.322,0-3.957,1.341-3.957,3.238,0,4.5,5.935,2.78,5.935,5.02,0,.867-.736,1.324-1.831,1.324a1.942,1.942,0,0,1-2.077-1.9H35.51A4.077,4.077,0,0,0,39.941,24.211Zm11-.131V22.167H49.9a1.042,1.042,0,0,1-1.161-1.177V17.736h2.207v-1.9H48.738V13.4H46.465v1.864a.51.51,0,0,1-.572.572H44.879v1.9h1.586v3.352a2.82,2.82,0,0,0,3.123,2.992Zm5.069.131a4.252,4.252,0,1,0-4.349-4.251A4.158,4.158,0,0,0,56.014,24.211Zm0-1.962a2.076,2.076,0,0,1-2.06-2.289,2.073,2.073,0,1,1,4.12,0A2.076,2.076,0,0,1,56.014,22.249ZM63.9,24.081V20.075c0-1.406.507-2.338,1.635-2.338h1.357v-1.9h-.932a1.971,1.971,0,0,0-2.06,1.373V15.84H61.606v8.241H63.9Zm7.865.131a3.72,3.72,0,0,0,3.924-2.927H73.461c-.18.7-.785,1.063-1.7,1.063a1.977,1.977,0,0,1-2.044-1.88h5.919c.016-.18.033-.425.033-.736A3.841,3.841,0,0,0,71.6,15.709a3.962,3.962,0,0,0-4.071,4.235,4.132,4.132,0,0,0,4.235,4.268ZM73.4,19.028H69.749a1.832,1.832,0,0,1,3.646,0Z" transform="translate(-0.519 1.351)" fill="#fff"/>
        <path id="Path_5587" data-name="Path 5587" d="M2.892,10.054A3.6,3.6,0,0,0,6.7,6.238a3.6,3.6,0,0,0-3.8-3.815H.636v7.631Zm-.022-.839h-1.3V3.263h1.3A2.707,2.707,0,0,1,5.727,6.238,2.707,2.707,0,0,1,2.871,9.214Zm8.481.927a3.726,3.726,0,0,0,3.75-3.9,3.748,3.748,0,1,0-7.489,0A3.718,3.718,0,0,0,11.351,10.141Zm0-.839a2.851,2.851,0,0,1-2.78-3.063,2.851,2.851,0,0,1,2.78-3.063,2.86,2.86,0,0,1,2.791,3.063A2.86,2.86,0,0,1,11.351,9.3Zm7.729.752,1.9-6.2,1.886,6.2h.959l2.333-7.631h-.948l-1.9,6.224L21.391,2.423h-.828L18.633,8.648,16.758,2.423h-.97l2.365,7.631Zm9.059,0V3.862l3.924,6.192h1.068V2.423H32.2V8.637L28.269,2.423H27.2v7.631Zm11.337,0V9.214H35.66V2.423h-.927v7.631Zm4.349.087a3.726,3.726,0,0,0,3.75-3.9,3.748,3.748,0,1,0-7.489,0A3.718,3.718,0,0,0,43.825,10.141Zm0-.839a2.851,2.851,0,0,1-2.78-3.063,2.8,2.8,0,1,1,5.57,0A2.86,2.86,0,0,1,43.825,9.3Zm5.243.752.8-2.06h3.4l.785,2.06h.97L51.978,2.423h-.839L48.1,10.054Zm3.87-2.889H50.18l1.384-3.6Zm5.211,2.889a3.6,3.6,0,0,0,3.8-3.815,3.6,3.6,0,0,0-3.8-3.815H55.892v7.631Zm-.022-.839h-1.3V3.263h1.3a2.707,2.707,0,0,1,2.856,2.976A2.707,2.707,0,0,1,58.126,9.214Zm11.075.927a3.726,3.726,0,0,0,3.75-3.9,3.748,3.748,0,1,0-7.489,0A3.718,3.718,0,0,0,69.2,10.141Zm0-.839a2.851,2.851,0,0,1-2.78-3.063,2.8,2.8,0,1,1,5.57,0A2.86,2.86,0,0,1,69.2,9.3Zm5.93.752V3.862l3.924,6.192h1.068V2.423H79.2V8.637L75.262,2.423H74.194v7.631Zm11.893,0V3.263h2.431V2.423h-5.81v.839h2.442v6.791Zm4.295,0V6.533h4.033v3.521h.937V2.423h-.937v3.27H91.319V2.423h-.937v7.631h.937Zm11.457,0V9.214H98.819V6.533h3.129V5.693H98.819V3.263h3.837V2.423H97.881v7.631h4.894Z" transform="translate(-0.636 -2.336)" fill="#fff" opacity="0.8"/>
      </g>
      <path id="Path_5588" data-name="Path 5588" d="M8.674,31.893C3.927,31.866,0,22.176,0,17.241c0-8.06,6.047-9.824,8.377-9.824a9.643,9.643,0,0,1,3.161.777,7.046,7.046,0,0,0,1.8.518,5.594,5.594,0,0,0,1.294-.42,10.37,10.37,0,0,1,3.9-.944h.01a8,8,0,0,1,6.694,3.381l.488.734-.7.53a5.915,5.915,0,0,0-2.834,4.875,5.5,5.5,0,0,0,3.07,5.087c.44.264.9.537.9,1.134,0,.39-3.109,8.756-7.625,8.756a6.156,6.156,0,0,1-2.575-.624,5.217,5.217,0,0,0-2.292-.553,5.911,5.911,0,0,0-1.815.491,8.872,8.872,0,0,1-3.148.736H8.673ZM19.02,0c.117,4.24-2.916,7.182-5.945,7-.5-3.385,3.03-7,5.946-7Z" fill="#fff"/>
    </g>
  </g>
</svg>
