<svg id="google-play" xmlns="http://www.w3.org/2000/svg" width="177.137" height="54.504" viewBox="0 0 177.137 54.504">
  <path id="Path_5575" data-name="Path 5575" d="M2.725,0H174.412a2.724,2.724,0,0,1,2.725,2.725V51.778a2.724,2.724,0,0,1-2.725,2.725H2.725A2.724,2.724,0,0,1,0,51.778V2.725A2.724,2.724,0,0,1,2.725,0Z"/>
  <g id="Group_5750" data-name="Group 5750" transform="translate(21.84 12.265)">
    <g id="Group_5749" data-name="Group 5749" transform="translate(0 0)">
      <path id="Path_5576" data-name="Path 5576" d="M23.713,11.051l-5.538-3.2-7.588,5.67,7.59,5.668,5.557-3.209a2.877,2.877,0,0,0-.02-4.93Z" transform="translate(3.801 2.846)" fill="#ff9100"/>
      <path id="Path_5577" data-name="Path 5577" d="M16.334,16.153,9.621,24.787.892,31.661A2.92,2.92,0,0,1,.028,29.59V2.669A2.915,2.915,0,0,1,.892.6L9.621,7.52l6.713,8.632Z" transform="translate(-0.028 0.215)" fill="#25d9f8"/>
      <path id="Path_5578" data-name="Path 5578" d="M12.506,12.672l-1.919,2.474V10.2Z" transform="translate(3.801 3.696)" fill="#00c0f1"/>
      <path id="Path_5579" data-name="Path 5579" d="M21.784,10.692,16.1,16.37.662.817A4.167,4.167,0,0,1,1.256.376,2.842,2.842,0,0,1,4.172.433L14.187,6.319l7.6,4.374Z" transform="translate(0.202 -0.001)" fill="#7fe881"/>
      <path id="Path_5580" data-name="Path 5580" d="M18.185,9.011l-5.679,5.678L10.587,12.77V4.637Z" transform="translate(3.801 1.68)" fill="#5bc980"/>
      <path id="Path_5581" data-name="Path 5581" d="M21.784,17.692l-7.6,4.374L4.153,27.925a2.936,2.936,0,0,1-1.477.421,2.98,2.98,0,0,1-1.42-.384,4.345,4.345,0,0,1-.594-.44L16.1,12.015l5.679,5.677Z" transform="translate(0.202 4.355)" fill="#ff637b"/>
      <path id="Path_5582" data-name="Path 5582" d="M18.185,17.692l-7.6,4.375V13.933l1.919-1.919Z" transform="translate(3.801 4.355)" fill="#e63950"/>
      <g id="Group_5748" data-name="Group 5748" transform="translate(44.241 1.819)">
        <path id="Path_5583" data-name="Path 5583" d="M6.459,22.277A3.074,3.074,0,0,0,9.516,20.4v1.75h2.175V17.731a1.835,1.835,0,0,0-1.848-1.848H6.737v1.848H8.944a.429.429,0,0,1,.458.458c0,1.063-1.406,2.093-2.829,2.093-1.9,0-3.4-1.488-3.4-3.859a3.407,3.407,0,0,1,3.45-3.744,2.45,2.45,0,0,1,2.665,2.028h2.436c-.147-2.453-2.207-4.137-5.085-4.137a5.532,5.532,0,0,0-5.8,5.854,5.447,5.447,0,0,0,5.625,5.854Zm10.775,0a4.158,4.158,0,0,0,4.349-4.251,4.158,4.158,0,0,0-4.349-4.251,4.158,4.158,0,0,0-4.349,4.251,4.158,4.158,0,0,0,4.349,4.251Zm0-1.962a2.076,2.076,0,0,1-2.06-2.289,2.073,2.073,0,1,1,4.12,0A2.076,2.076,0,0,1,17.234,20.315Zm9.516,1.962A4.158,4.158,0,0,0,31.1,18.025a4.158,4.158,0,0,0-4.349-4.251A4.158,4.158,0,0,0,22.4,18.025,4.158,4.158,0,0,0,26.75,22.277Zm0-1.962a2.076,2.076,0,0,1-2.06-2.289,2.073,2.073,0,1,1,4.12,0A2.076,2.076,0,0,1,26.75,20.315Zm10.612,5.167a2.814,2.814,0,0,0,3.107-2.845V13.9H38.18v.818a2.867,2.867,0,0,0-2.273-.948c-2.4,0-3.859,1.684-3.859,4.251s1.455,4.251,3.892,4.251a2.742,2.742,0,0,0,2.256-.965v1.079A1.21,1.21,0,0,1,37,23.7H33.209v1.782ZM36.3,20.315a2.033,2.033,0,0,1-2.011-2.289,2.037,2.037,0,1,1,4.039,0A2.036,2.036,0,0,1,36.3,20.315Zm8.372,1.831V10.324H42.4V22.146Zm5.608.131A3.72,3.72,0,0,0,54.2,19.35H51.98c-.18.7-.785,1.063-1.7,1.063a1.977,1.977,0,0,1-2.044-1.88h5.919c.016-.18.033-.425.033-.736a3.841,3.841,0,0,0-4.071-4.022,3.962,3.962,0,0,0-4.071,4.235,4.132,4.132,0,0,0,4.235,4.268Zm1.635-5.183H48.269a1.832,1.832,0,0,1,3.646,0Zm9.663,5.052V17.927h2.24a3.512,3.512,0,0,0,3.859-3.614A3.5,3.5,0,0,0,63.818,10.7H59.109V22.146Zm2.093-6.262H61.578V12.744h2.093a1.484,1.484,0,0,1,1.635,1.57,1.484,1.484,0,0,1-1.635,1.57Zm7.538,6.262V10.324H68.936V22.146Zm4.235.131A2.343,2.343,0,0,0,77.766,21v1.145h2.256v-5.3c0-1.864-1.521-3.074-3.6-3.074-2.256,0-3.6,1.324-3.7,2.976h2.028a1.388,1.388,0,0,1,1.537-1.308c.932,0,1.472.474,1.472,1.161a.571.571,0,0,1-.621.6h-1.39c-1.8,0-3.009.981-3.009,2.6a2.5,2.5,0,0,0,2.7,2.469Zm.572-1.651a.977.977,0,0,1-1.1-.916A1.072,1.072,0,0,1,76.1,18.647h1.668v.114a1.713,1.713,0,0,1-1.75,1.864Zm6.818,4.856c1.684,0,2.224-.834,2.763-2.355l.343-.981L88.95,13.9H86.612l-1.717,5.33L83.162,13.9H80.84l2.976,8.143-.311.818c-.213.589-.556.834-.916.834h-.965v1.782h1.21Z" transform="translate(-0.373 3.286)" fill="#fff"/>
        <path id="Path_5584" data-name="Path 5584" d="M4.246,8.141A2.05,2.05,0,0,0,6.284,6.887V8.054h1.45V5.111A1.223,1.223,0,0,0,6.5,3.879H4.431V5.111H5.9a.286.286,0,0,1,.305.305c0,.709-.937,1.4-1.886,1.4A2.332,2.332,0,0,1,2.055,4.238a2.271,2.271,0,0,1,2.3-2.5A1.633,1.633,0,0,1,6.132,3.094H7.756C7.658,1.459,6.284.336,4.366.336A3.688,3.688,0,0,0,.5,4.238a3.631,3.631,0,0,0,3.75,3.9Zm10.029-.087V6.637H10.59V4.86h2.834V3.443H10.59V1.829h3.565V.423h-5.2V8.054Zm4.338,0V1.829h2.256V.423H14.721V1.829h2.256V8.054Zm6.987,0V.423H23.954V8.054Zm4.676,0V1.829h2.256V.423H26.385V1.829h2.256V8.054Zm8.917.087a3.79,3.79,0,0,0,3.892-3.9,3.9,3.9,0,1,0-7.794,0A3.792,3.792,0,0,0,39.194,8.141Zm-.011-1.417a2.3,2.3,0,0,1-2.246-2.485,2.263,2.263,0,1,1,4.5,0A2.307,2.307,0,0,1,39.183,6.724Zm6.595,1.33V3.007l3.063,5.047H50.6V.423H48.95V5.47L45.887.423H44.142V8.054Z" transform="translate(-0.496 -0.336)" fill="#fff" opacity="0.8"/>
      </g>
    </g>
  </g>
</svg>
