<svg xmlns="http://www.w3.org/2000/svg" xmlns:xlink="http://www.w3.org/1999/xlink" width="108" height="108" viewBox="0 0 108 108">
  <defs>
    <filter id="Rectangle_2295" x="0" y="0" width="108" height="108" filterUnits="userSpaceOnUse">
      <feOffset dy="3" input="SourceAlpha"/>
      <feGaussianBlur stdDeviation="3" result="blur"/>
      <feFlood flood-opacity="0.161"/>
      <feComposite operator="in" in2="blur"/>
      <feComposite in="SourceGraphic"/>
    </filter>
  </defs>
  <g id="Group_8333" data-name="Group 8333" transform="translate(-1613 -1014)">
    <g transform="matrix(1, 0, 0, 1, 1613, 1014)" filter="url(#Rectangle_2295)">
      <rect id="Rectangle_2295-2" data-name="Rectangle 2295" width="90" height="90" rx="45" transform="translate(9 6)" fill="#25d366"/>
    </g>
    <path id="Path_7255" data-name="Path 7255" d="M31.733,5.427A18.325,18.325,0,0,0,18.651,0,18.512,18.512,0,0,0,2.615,27.744L0,37.331l9.809-2.571a18.509,18.509,0,0,0,8.843,2.251h.009A18.493,18.493,0,0,0,31.731,5.427ZM18.651,33.88a15.336,15.336,0,0,1-7.83-2.147l-.56-.336L4.442,32.923,6,27.247l-.364-.586A15.369,15.369,0,1,1,18.651,33.88Zm8.434-11.512c-.46-.231-2.73-1.349-3.157-1.507s-.735-.231-1.038.231-1.2,1.507-1.463,1.808-.541.345-1,.117a12.621,12.621,0,0,1-3.714-2.3,14.106,14.106,0,0,1-2.573-3.2c-.266-.462-.026-.709.205-.94.2-.205.46-.541.691-.807a2.95,2.95,0,0,0,.462-.77.86.86,0,0,0-.035-.81c-.117-.231-1.038-2.51-1.428-3.43-.373-.908-.754-.782-1.038-.793-.266-.016-.576-.016-.887-.016a1.7,1.7,0,0,0-1.234.576A5.18,5.18,0,0,0,9.26,14.386a8.955,8.955,0,0,0,1.89,4.781c.229.31,3.252,4.974,7.893,6.981a25.714,25.714,0,0,0,2.634.975,6.349,6.349,0,0,0,2.907.187c.887-.135,2.732-1.12,3.122-2.2a3.87,3.87,0,0,0,.266-2.2c-.114-.2-.425-.31-.887-.541Z" transform="translate(1648.518 1046.518)" fill="#fff"/>
  </g>
</svg>
